<svg width="190" height="34" viewBox="0 0 190 34" fill="none" xmlns="http://www.w3.org/2000/svg">
<g clip-path="url(#clip0_55_123)">
<path d="M60.164 3.456C61.52 3.456 62.288 4.068 62.684 4.524C63.488 5.448 63.608 6.78 63.608 7.8C63.608 8.844 63.488 10.164 62.684 11.088C62.156 11.7 61.364 12.144 60.164 12.144C58.964 12.144 58.172 11.7 57.644 11.088C56.84 10.164 56.72 8.844 56.72 7.8C56.72 6.78 56.84 5.448 57.644 4.524C58.04 4.068 58.808 3.456 60.164 3.456ZM62.312 8.256V7.344C62.312 6.732 62.264 5.616 61.7 4.98C61.448 4.692 60.992 4.368 60.164 4.368C59.336 4.368 58.88 4.692 58.628 4.98C58.064 5.616 58.016 6.732 58.016 7.344V8.256C58.016 8.868 58.064 9.984 58.628 10.62C58.88 10.908 59.336 11.232 60.164 11.232C60.992 11.232 61.448 10.908 61.7 10.62C62.264 9.984 62.312 8.868 62.312 8.256ZM69.084 3.132H70.044C70.032 3.9 69.816 4.14 69.552 4.308C69.42 4.392 69.108 4.572 68.472 4.704L67.632 4.884C67.296 4.956 66.732 5.052 66.384 5.4C66.024 5.76 65.82 6.54 65.796 7.212H65.88C66.228 6.336 67.092 6.048 67.836 6.048C68.772 6.048 69.312 6.492 69.576 6.804C69.9 7.176 70.26 7.872 70.26 9.084C70.26 9.792 70.14 10.716 69.54 11.364C69.156 11.772 68.52 12.12 67.656 12.12C66.792 12.12 66.144 11.772 65.772 11.364C65.052 10.572 65.052 9.276 65.052 8.52C65.052 7.464 65.112 6.54 65.316 5.796C65.436 5.352 65.64 4.884 66.06 4.536C66.564 4.116 67.224 4.008 67.668 3.912L68.172 3.804C68.784 3.672 69.024 3.576 69.072 3.216L69.084 3.132ZM69.084 9.588V8.58C69.084 8.124 69.036 7.608 68.664 7.212C68.496 7.032 68.184 6.816 67.656 6.816C67.128 6.816 66.816 7.032 66.648 7.212C66.276 7.608 66.228 8.124 66.228 8.58V9.588C66.228 10.044 66.276 10.56 66.648 10.956C66.816 11.136 67.128 11.352 67.656 11.352C68.184 11.352 68.496 11.136 68.664 10.956C69.036 10.56 69.084 10.044 69.084 9.588ZM73.5234 8.316H74.7594C75.2634 8.316 76.0434 8.364 76.6074 8.832C76.9914 9.156 77.2074 9.636 77.2074 10.164C77.2074 10.716 76.9554 11.184 76.6314 11.472C76.3314 11.748 75.8034 12 74.9394 12H72.4434V7.008H70.9194V6.168H73.5234V8.316ZM73.5234 9.156V11.16H75.0114C75.4314 11.16 75.7074 11.028 75.8514 10.872C75.9354 10.788 76.1034 10.584 76.1034 10.164C76.1034 9.9 76.0554 9.624 75.8034 9.408C75.6714 9.288 75.4074 9.156 74.9754 9.156H73.5234ZM79.3385 9.336V9.492C79.3385 10.188 79.5545 10.596 79.7465 10.8C80.0225 11.1 80.5145 11.28 81.0665 11.28C81.4025 11.28 81.6545 11.232 81.9785 11.136C82.2425 11.052 82.4585 10.956 82.6505 10.86L82.9865 11.544C82.8065 11.64 82.5305 11.784 82.2785 11.88C81.7985 12.06 81.3425 12.12 80.9105 12.12C79.9385 12.12 79.2545 11.724 78.8585 11.28C78.2585 10.608 78.1625 9.648 78.1625 8.988C78.1625 8.412 78.2225 7.512 78.8345 6.816C79.2065 6.408 79.8065 6.048 80.6105 6.048C81.3545 6.048 81.9425 6.336 82.3265 6.744C82.9025 7.368 82.9385 8.136 82.9385 9.072V9.336H79.3385ZM79.3385 8.568H81.8105V8.328C81.8105 7.92 81.8105 7.464 81.4265 7.104C81.1985 6.888 80.9105 6.816 80.5985 6.816C80.1545 6.816 79.8785 7.02 79.7225 7.2C79.5425 7.392 79.3385 7.764 79.3385 8.436V8.568ZM88.6168 6.168V11.16H89.3848V13.572H88.3648V12H84.5488V13.572H83.5288V11.16H83.9968C84.3448 10.728 84.7528 10.092 84.9328 9.192C84.9928 8.928 85.0648 8.4 85.0888 7.38L85.1128 6.168H88.6168ZM87.5608 7.008H86.0008L85.9768 7.716C85.9408 8.784 85.8448 9.372 85.7248 9.792C85.5568 10.368 85.3048 10.824 85.0527 11.16H87.5608V7.008ZM95.6917 6.168V12H94.6357V7.5L91.7317 12H90.6037V6.168H91.6597V10.668L94.5637 6.168H95.6917ZM102.293 6.168V12H101.237V9.372H98.5972V12H97.5412V6.168H98.5972V8.532H101.237V6.168H102.293ZM104.991 9.336V9.492C104.991 10.188 105.207 10.596 105.399 10.8C105.675 11.1 106.167 11.28 106.719 11.28C107.055 11.28 107.307 11.232 107.631 11.136C107.895 11.052 108.111 10.956 108.303 10.86L108.639 11.544C108.459 11.64 108.183 11.784 107.931 11.88C107.451 12.06 106.995 12.12 106.563 12.12C105.591 12.12 104.907 11.724 104.511 11.28C103.911 10.608 103.815 9.648 103.815 8.988C103.815 8.412 103.875 7.512 104.487 6.816C104.859 6.408 105.459 6.048 106.263 6.048C107.007 6.048 107.595 6.336 107.979 6.744C108.555 7.368 108.591 8.136 108.591 9.072V9.336H104.991ZM104.991 8.568H107.463V8.328C107.463 7.92 107.463 7.464 107.079 7.104C106.851 6.888 106.563 6.816 106.251 6.816C105.807 6.816 105.531 7.02 105.375 7.2C105.195 7.392 104.991 7.764 104.991 8.436V8.568ZM114.797 6.168V12H113.741V9.372H111.101V12H110.045V6.168H111.101V8.532H113.741V6.168H114.797ZM121.395 6.168V12H120.339V9.372H117.699V12H116.643V6.168H117.699V8.532H120.339V6.168H121.395ZM126.636 12V11.28H126.588C126.456 11.484 126.276 11.7 125.94 11.88C125.58 12.072 125.28 12.12 124.848 12.12C124.38 12.12 123.888 12.06 123.456 11.676C123.228 11.472 122.916 11.076 122.916 10.416C122.916 9.72 123.252 9.288 123.54 9.06C123.78 8.88 124.332 8.568 125.628 8.568H126.54V7.812C126.54 7.536 126.516 7.296 126.288 7.08C126.024 6.84 125.58 6.816 125.352 6.816C125.148 6.816 124.74 6.84 124.488 7.008C124.224 7.176 124.164 7.416 124.164 7.704L123.204 7.656C123.048 7.02 123.336 6.648 123.66 6.432C124.188 6.084 125.028 6.048 125.412 6.048C125.7 6.048 126.636 6.084 127.14 6.588C127.608 7.056 127.596 7.656 127.596 8.232V12H126.636ZM126.54 10.536V9.288H125.58C124.908 9.288 124.56 9.42 124.368 9.588C124.212 9.72 124.044 9.972 124.044 10.38C124.044 10.656 124.116 10.884 124.344 11.076C124.584 11.28 124.86 11.328 125.148 11.328C125.508 11.328 125.724 11.256 126.012 11.064C126.228 10.92 126.396 10.776 126.54 10.536ZM133.882 6.168V12H132.826V9.528H131.89C131.686 9.528 131.458 9.54 131.23 9.72C131.026 9.876 130.894 10.116 130.786 10.368L130.054 12H128.854L129.79 10.032C129.862 9.876 129.946 9.684 130.162 9.492C130.33 9.348 130.522 9.276 130.582 9.252V9.216C130.162 9.156 129.826 8.94 129.634 8.724C129.418 8.484 129.262 8.112 129.262 7.728C129.262 7.224 129.514 6.732 129.946 6.468C130.258 6.276 130.762 6.168 131.158 6.168H133.882ZM132.826 7.008H131.47C131.23 7.008 130.918 7.008 130.666 7.188C130.426 7.356 130.366 7.608 130.366 7.86C130.366 8.436 130.87 8.688 131.542 8.688H132.826V7.008ZM138.749 12V3.6H143.585V4.56H139.925V7.044H140.981C141.737 7.044 142.709 7.032 143.489 7.644C144.101 8.124 144.389 8.892 144.389 9.528C144.389 10.104 144.113 10.8 143.609 11.256C142.901 11.892 141.905 12 141.137 12H138.749ZM139.925 8.004V11.04H141.521C142.025 11.04 142.493 10.848 142.745 10.572C142.889 10.416 143.093 10.104 143.093 9.552C143.093 8.844 142.805 8.496 142.613 8.34C142.229 8.028 141.701 8.004 141.437 8.004H139.925ZM148.313 6.048C149.177 6.048 149.813 6.396 150.197 6.804C150.797 7.452 150.917 8.376 150.917 9.084C150.917 9.792 150.797 10.716 150.197 11.364C149.813 11.772 149.177 12.12 148.313 12.12C147.449 12.12 146.813 11.772 146.429 11.364C145.829 10.716 145.709 9.792 145.709 9.084C145.709 8.376 145.829 7.452 146.429 6.804C146.813 6.396 147.449 6.048 148.313 6.048ZM149.741 9.348V8.82C149.741 8.268 149.741 7.656 149.321 7.212C149.153 7.032 148.841 6.816 148.313 6.816C147.785 6.816 147.473 7.032 147.305 7.212C146.885 7.656 146.885 8.268 146.885 8.82V9.348C146.885 9.9 146.885 10.512 147.305 10.956C147.473 11.136 147.785 11.352 148.313 11.352C148.841 11.352 149.153 11.136 149.321 10.956C149.741 10.512 149.741 9.9 149.741 9.348ZM156.376 6.168V12H155.32V7.008H153.628L153.616 7.656C153.604 8.316 153.544 9.516 153.496 9.996C153.424 10.692 153.268 11.412 152.608 11.832C152.32 12.012 151.888 12.132 151.516 12.156L151.24 11.304C151.492 11.268 151.876 11.16 152.104 10.968C152.548 10.596 152.608 9.828 152.632 9.252C152.656 8.7 152.692 7.488 152.692 7.128L152.704 6.168H156.376ZM159.301 8.316H160.537C161.041 8.316 161.821 8.364 162.385 8.832C162.769 9.156 162.985 9.636 162.985 10.164C162.985 10.716 162.733 11.184 162.409 11.472C162.109 11.748 161.581 12 160.717 12H158.221V6.168H159.301V8.316ZM159.301 9.156V11.16H160.789C161.209 11.16 161.485 11.028 161.629 10.872C161.713 10.788 161.881 10.584 161.881 10.164C161.881 9.9 161.833 9.624 161.581 9.408C161.449 9.288 161.185 9.156 160.753 9.156H159.301ZM169.02 6.168V12H167.964V9.372H165.324V12H164.268V6.168H165.324V8.532H167.964V6.168H169.02ZM175.953 6.168V12H174.897V7.5L171.993 12H170.865V6.168H171.921V10.668L174.825 6.168H175.953ZM181.331 6.168H182.387V11.16H183.155V13.572H182.135V12H177.803V6.168H178.859V11.16H181.331V6.168ZM187.773 12V11.28H187.725C187.593 11.484 187.413 11.7 187.077 11.88C186.717 12.072 186.417 12.12 185.985 12.12C185.517 12.12 185.025 12.06 184.593 11.676C184.365 11.472 184.053 11.076 184.053 10.416C184.053 9.72 184.389 9.288 184.677 9.06C184.917 8.88 185.469 8.568 186.765 8.568H187.677V7.812C187.677 7.536 187.653 7.296 187.425 7.08C187.161 6.84 186.717 6.816 186.489 6.816C186.285 6.816 185.877 6.84 185.625 7.008C185.361 7.176 185.301 7.416 185.301 7.704L184.341 7.656C184.185 7.02 184.473 6.648 184.797 6.432C185.325 6.084 186.165 6.048 186.549 6.048C186.837 6.048 187.773 6.084 188.277 6.588C188.745 7.056 188.733 7.656 188.733 8.232V12H187.773ZM187.677 10.536V9.288H186.717C186.045 9.288 185.697 9.42 185.505 9.588C185.349 9.72 185.181 9.972 185.181 10.38C185.181 10.656 185.253 10.884 185.481 11.076C185.721 11.28 185.997 11.328 186.285 11.328C186.645 11.328 186.861 11.256 187.149 11.064C187.365 10.92 187.533 10.776 187.677 10.536ZM60.992 26.86L61.328 27.544C61.148 27.64 60.872 27.784 60.62 27.88C60.212 28.036 59.792 28.12 59.252 28.12C58.748 28.12 58.076 28.024 57.524 27.544C56.672 26.8 56.6 25.624 56.6 25.12C56.6 24.328 56.732 23.188 57.596 22.54C58.04 22.204 58.7 22.048 59.276 22.048C59.672 22.048 60.212 22.156 60.584 22.36C61.184 22.684 61.412 23.32 61.232 23.944L60.26 24.028C60.296 23.692 60.296 23.344 60.056 23.104C59.876 22.924 59.576 22.816 59.18 22.816C58.844 22.816 58.556 22.9 58.34 23.044C57.74 23.464 57.776 24.208 57.776 24.652V25.432C57.776 25.924 57.8 26.476 58.232 26.884C58.616 27.244 59.204 27.28 59.408 27.28C59.732 27.28 59.996 27.232 60.32 27.136C60.584 27.052 60.8 26.956 60.992 26.86ZM72.0173 19.6V28H70.8413V20.56H66.9293V28H65.7533V19.6H72.0173ZM76.3603 22.048C77.2243 22.048 77.8603 22.396 78.2443 22.804C78.8443 23.452 78.9643 24.376 78.9643 25.084C78.9643 25.792 78.8443 26.716 78.2443 27.364C77.8603 27.772 77.2243 28.12 76.3603 28.12C75.4963 28.12 74.8603 27.772 74.4763 27.364C73.8763 26.716 73.7563 25.792 73.7563 25.084C73.7563 24.376 73.8763 23.452 74.4763 22.804C74.8603 22.396 75.4963 22.048 76.3603 22.048ZM77.7883 25.348V24.82C77.7883 24.268 77.7883 23.656 77.3683 23.212C77.2003 23.032 76.8883 22.816 76.3603 22.816C75.8323 22.816 75.5203 23.032 75.3523 23.212C74.9323 23.656 74.9323 24.268 74.9323 24.82V25.348C74.9323 25.9 74.9323 26.512 75.3523 26.956C75.5203 27.136 75.8323 27.352 76.3603 27.352C76.8883 27.352 77.2003 27.136 77.3683 26.956C77.7883 26.512 77.7883 25.9 77.7883 25.348ZM84.4231 22.168V28H83.3671V23.008H81.6751L81.6631 23.656C81.6511 24.316 81.5911 25.516 81.5431 25.996C81.4711 26.692 81.3151 27.412 80.6551 27.832C80.3671 28.012 79.9351 28.132 79.5631 28.156L79.2871 27.304C79.5391 27.268 79.9231 27.16 80.1511 26.968C80.5951 26.596 80.6551 25.828 80.6791 25.252C80.7031 24.7 80.7391 23.488 80.7391 23.128L80.7511 22.168H84.4231ZM91.3558 22.168V28H90.2998V23.5L87.3958 28H86.2678V22.168H87.3238V26.668L90.2278 22.168H91.3558ZM94.2613 22.168V24.484H95.0773C95.2812 24.484 95.5693 24.472 95.7733 24.28C95.9293 24.136 96.0253 23.896 96.0853 23.728L96.3133 23.056C96.5293 22.408 96.7453 22.24 97.0093 22.132C97.1653 22.072 97.2853 22.048 97.4533 22.048C97.6573 22.048 97.8973 22.084 98.1253 22.18L97.9693 22.972C97.8493 22.9 97.7413 22.888 97.6573 22.888C97.5733 22.888 97.4893 22.9 97.4173 22.972C97.3693 23.02 97.2973 23.116 97.2133 23.344L97.0213 23.908C96.9373 24.136 96.8773 24.352 96.6613 24.568C96.5413 24.688 96.3613 24.808 96.1333 24.868V24.904C96.3733 24.94 96.5773 25.036 96.7813 25.228C97.0333 25.468 97.1893 25.828 97.2013 25.852L98.1613 28H96.9853L96.1573 26.164C96.0493 25.912 95.9653 25.672 95.7373 25.504C95.5333 25.348 95.3173 25.324 95.1133 25.324H94.2613V28H93.2053V22.168H94.2613ZM103.677 22.168V28H102.621V23.008H100.929L100.917 23.656C100.905 24.316 100.845 25.516 100.797 25.996C100.725 26.692 100.569 27.412 99.909 27.832C99.621 28.012 99.189 28.132 98.817 28.156L98.541 27.304C98.793 27.268 99.177 27.16 99.405 26.968C99.849 26.596 99.909 25.828 99.933 25.252C99.957 24.7 99.993 23.488 99.993 23.128L100.005 22.168H103.677ZM110.61 22.168V28H109.554V23.5L106.65 28H105.522V22.168H106.578V26.668L109.482 22.168H110.61ZM117.211 22.168V28H116.155V25.372H113.515V28H112.459V22.168H113.515V24.532H116.155V22.168H117.211ZM124.145 22.168V28H123.089V23.5L120.185 28H119.057V22.168H120.113V26.668L123.017 22.168H124.145ZM127.05 22.168V24.484H127.866C128.07 24.484 128.358 24.472 128.562 24.28C128.718 24.136 128.814 23.896 128.874 23.728L129.102 23.056C129.318 22.408 129.534 22.24 129.798 22.132C129.954 22.072 130.074 22.048 130.242 22.048C130.446 22.048 130.686 22.084 130.914 22.18L130.758 22.972C130.638 22.9 130.53 22.888 130.446 22.888C130.362 22.888 130.278 22.9 130.206 22.972C130.158 23.02 130.086 23.116 130.002 23.344L129.81 23.908C129.726 24.136 129.666 24.352 129.45 24.568C129.33 24.688 129.15 24.808 128.922 24.868V24.904C129.162 24.94 129.366 25.036 129.57 25.228C129.822 25.468 129.978 25.828 129.99 25.852L130.95 28H129.774L128.946 26.164C128.838 25.912 128.754 25.672 128.526 25.504C128.322 25.348 128.106 25.324 127.902 25.324H127.05V28H125.994V22.168H127.05ZM134.45 22.048C135.314 22.048 135.95 22.396 136.334 22.804C136.934 23.452 137.054 24.376 137.054 25.084C137.054 25.792 136.934 26.716 136.334 27.364C135.95 27.772 135.314 28.12 134.45 28.12C133.586 28.12 132.95 27.772 132.566 27.364C131.966 26.716 131.846 25.792 131.846 25.084C131.846 24.376 131.966 23.452 132.566 22.804C132.95 22.396 133.586 22.048 134.45 22.048ZM135.878 25.348V24.82C135.878 24.268 135.878 23.656 135.458 23.212C135.29 23.032 134.978 22.816 134.45 22.816C133.922 22.816 133.61 23.032 133.442 23.212C133.022 23.656 133.022 24.268 133.022 24.82V25.348C133.022 25.9 133.022 26.512 133.442 26.956C133.61 27.136 133.922 27.352 134.45 27.352C134.978 27.352 135.29 27.136 135.458 26.956C135.878 26.512 135.878 25.9 135.878 25.348ZM143.668 22.168V28H142.612V23.5L139.708 28H138.58V22.168H139.636V26.668L142.54 22.168H143.668ZM139.552 19.696L140.392 19.768C140.32 20.032 140.404 20.272 140.572 20.404C140.716 20.512 140.944 20.548 141.124 20.548C141.304 20.548 141.532 20.512 141.676 20.404C141.844 20.272 141.928 20.032 141.856 19.768L142.696 19.696C142.744 19.84 142.756 19.96 142.756 20.104C142.756 20.44 142.66 20.788 142.24 21.028C141.928 21.208 141.46 21.268 141.124 21.268C140.788 21.268 140.32 21.208 140.008 21.028C139.588 20.788 139.492 20.44 139.492 20.104C139.492 19.96 139.504 19.84 139.552 19.696Z" fill="#303030"/>
<g clip-path="url(#clip1_55_123)">
<mask id="mask0_55_123" style="mask-type:luminance" maskUnits="userSpaceOnUse" x="0" y="0" width="46" height="34">
<path d="M46 0.764709H0V33.2353H46V0.764709Z" fill="white"/>
</mask>
<g mask="url(#mask0_55_123)">
<path d="M15.9198 13.0369C15.1903 13.063 14.4636 12.9331 13.7875 12.6557C13.1115 12.3783 12.5016 11.9598 11.998 11.4276C10.9498 10.2523 10.4044 8.70796 10.4804 7.13009C10.4236 5.57834 10.9407 4.06057 11.9315 2.87071C12.4354 2.30562 13.0586 1.86133 13.7553 1.57047C14.452 1.27961 15.2046 1.14956 15.9577 1.18988C16.6787 1.16411 17.397 1.29201 18.0656 1.56522C18.734 1.83842 19.3377 2.25075 19.8369 2.77521C20.8668 3.92072 21.4069 5.42877 21.3402 6.97251C21.4202 8.57889 20.8778 10.1538 19.8274 11.3656C19.3336 11.9079 18.7291 12.3364 18.0555 12.6215C17.3818 12.9067 16.6549 13.0419 15.9245 13.0178L15.9198 13.0369ZM15.9245 10.4154C16.1915 10.4297 16.4564 10.3627 16.6849 10.223C16.9133 10.0832 17.0946 9.87737 17.2049 9.63222C17.4642 9.11019 17.5938 8.15515 17.5938 6.76718C17.5938 4.75846 17.0595 3.75569 15.9909 3.75888C14.8148 3.77161 14.2268 4.92241 14.2268 7.21127C14.2268 9.36007 14.7801 10.4329 15.8866 10.4296" fill="#C4111F"/>
<path d="M22.8246 12.8555V1.35712H31.2421V3.74466H26.2343V5.8266H28.1312C28.9708 5.79279 29.8095 5.91251 30.6066 6.17995C31.1889 6.40392 31.6866 6.80648 32.0293 7.33075C32.3888 7.90087 32.572 8.56563 32.5557 9.24082C32.5546 9.87832 32.4086 10.5072 32.1289 11.0792C31.829 11.6888 31.3077 12.159 30.6731 12.3924C30.0128 12.6675 29.3057 12.8102 28.5912 12.8125H22.8246V12.8555ZM26.2343 10.3152H27.9415C28.0842 10.3322 28.229 10.3163 28.3647 10.2687C28.5004 10.2212 28.6237 10.1431 28.7251 10.0405C28.8265 9.93799 28.9034 9.81359 28.95 9.67667C28.9967 9.53975 29.0118 9.39397 28.9943 9.25036C28.9943 8.56272 28.5643 8.21894 27.7044 8.21894H26.2343V10.3152Z" fill="#C4111F"/>
<path d="M34.0019 12.7406V1.24216H43.4343V12.7406H40.0293V3.71087H37.4116V12.7406H34.0019Z" fill="#C4111F"/>
<path fill-rule="evenodd" clip-rule="evenodd" d="M1.07045 0.955175C2.01349 0.495708 3.14788 0.89301 3.60419 1.84257L10.1995 15.5672H44.1028C45.1505 15.5672 45.9998 16.4224 45.9998 17.4773C45.9998 18.5321 45.1505 19.3873 44.1028 19.3873H10.2007L4.07916 32.1554C3.6237 33.1054 2.48966 33.5037 1.54622 33.0451C0.60277 32.5865 0.207176 31.4446 0.662633 30.4946L6.90324 17.4783L0.189151 3.50645C-0.267157 2.55689 0.127414 1.41464 1.07045 0.955175Z" fill="#024593"/>
<path d="M10.7034 19.0055C10.7034 19.1436 10.649 19.276 10.552 19.3736C10.4551 19.4712 10.3236 19.5261 10.1866 19.5261H6.80528C6.6682 19.5261 6.53673 19.4712 6.43979 19.3736C6.34285 19.276 6.28839 19.1436 6.28839 19.0055V15.5961C6.2921 15.4606 6.34819 15.3319 6.44473 15.2373C6.54127 15.1428 6.67064 15.0899 6.80528 15.09H10.1866C10.3236 15.09 10.4551 15.1448 10.552 15.2424C10.649 15.3401 10.7034 15.4724 10.7034 15.6104V19.0055Z" fill="white"/>
<path d="M10.7034 19.0055C10.7034 19.1436 10.649 19.276 10.552 19.3736C10.4551 19.4712 10.3236 19.5261 10.1866 19.5261H6.80528C6.6682 19.5261 6.53673 19.4712 6.43979 19.3736C6.34285 19.276 6.28839 19.1436 6.28839 19.0055V15.5961C6.2921 15.4606 6.34819 15.3319 6.44473 15.2373C6.54127 15.1428 6.67064 15.0899 6.80528 15.09H10.1866C10.3236 15.09 10.4551 15.1448 10.552 15.2424C10.649 15.3401 10.7034 15.4724 10.7034 15.6104V19.0055Z" stroke="#C4111F" stroke-width="0.676471" stroke-miterlimit="10"/>
<path d="M10.0204 16.9094V17.6925H8.88699V18.8767H8.10452V17.6925H6.97116V16.9094H8.10452V15.7252H8.88699V16.9094H10.0204Z" fill="#C4111F"/>
</g>
</g>
</g>
<defs>
<clipPath id="clip0_55_123">
<rect width="190" height="34" fill="white"/>
</clipPath>
<clipPath id="clip1_55_123">
<rect width="46" height="34" fill="white"/>
</clipPath>
</defs>
</svg>
