<svg width="467" height="48" viewBox="0 0 467 48" fill="none" xmlns="http://www.w3.org/2000/svg">
    <path d="M23.4682 18.1576C22.3927 18.1961 21.3214 18.0045 20.3248 17.5957C19.3282 17.1867 18.4291 16.5697 17.6866 15.7853C16.1414 14.0526 15.3374 11.7759 15.4495 9.44988C15.3658 7.16232 16.1281 4.92484 17.5887 3.17077C18.3316 2.33772 19.2502 1.68276 20.2773 1.25397C21.3043 0.825191 22.4138 0.63348 23.5241 0.692915C24.587 0.654924 25.6458 0.84348 26.6314 1.24623C27.6169 1.64898 28.5067 2.25684 29.2427 3.02998C30.761 4.71867 31.5572 6.94182 31.4589 9.21758C31.5767 11.5857 30.7773 13.9075 29.2287 15.6938C28.5008 16.4933 27.6096 17.125 26.6166 17.5453C25.6234 17.9657 24.5519 18.165 23.4751 18.1294L23.4682 18.1576ZM23.4751 14.293C23.8687 14.3141 24.2593 14.2153 24.596 14.0094C24.9328 13.8033 25.2001 13.4999 25.3627 13.1385C25.7449 12.3689 25.9359 10.961 25.9359 8.91489C25.9359 5.95367 25.1483 4.47539 23.573 4.48009C21.8393 4.49886 20.9724 6.19535 20.9724 9.56955C20.9724 12.7373 21.788 14.3188 23.4192 14.314" fill="#C4111F"/>
    <path d="M33.6464 17.8903V0.939453H46.0554V4.45913H38.6729V7.52829H41.4694C42.7071 7.47845 43.9435 7.65494 45.1186 8.0492C45.977 8.37937 46.7107 8.97282 47.2159 9.74569C47.7458 10.5861 48.0159 11.5661 47.992 12.5615C47.9903 13.5013 47.7751 14.4283 47.3627 15.2716C46.9206 16.1703 46.1521 16.8635 45.2165 17.2074C44.2432 17.613 43.2008 17.8234 42.1475 17.8268H33.6464V17.8903ZM38.6729 14.1453H41.1897C41.4001 14.1703 41.6135 14.1469 41.8135 14.0768C42.0137 14.0067 42.1954 13.8916 42.3449 13.7404C42.4944 13.5892 42.6077 13.4059 42.6765 13.204C42.7453 13.0022 42.7675 12.7873 42.7417 12.5755C42.7417 11.5618 42.1078 11.0551 40.8401 11.0551H38.6729V14.1453Z" fill="#C4111F"/>
    <path d="M50.1233 17.7208V0.769989H64.0283V17.7208H59.0088V4.40934H55.1498V17.7208H50.1233Z" fill="#C4111F"/>
    <path fill-rule="evenodd" clip-rule="evenodd" d="M1.578 0.346946C2.96816 -0.330367 4.64039 0.255307 5.31306 1.65509L15.0355 21.887H65.0133C66.5577 21.887 67.8097 23.1477 67.8097 24.7027C67.8097 26.2577 66.5577 27.5183 65.0133 27.5183H15.0372L6.01323 46.3402C5.34182 47.7406 3.6701 48.3277 2.27934 47.6517C0.888575 46.9756 0.305418 45.2923 0.976821 43.892L10.1763 24.7041L0.278847 4.10785C-0.39381 2.70808 0.187839 1.02426 1.578 0.346946Z" fill="#024593"/>
    <path d="M15.7785 26.9557C15.7785 27.1593 15.6982 27.3544 15.5553 27.4983C15.4124 27.6422 15.2185 27.7231 15.0165 27.7231H10.0319C9.82981 27.7231 9.63599 27.6422 9.49308 27.4983C9.35018 27.3544 9.2699 27.1593 9.2699 26.9557V21.9296C9.27536 21.7299 9.35805 21.5401 9.50037 21.4007C9.64269 21.2614 9.8334 21.1834 10.0319 21.1835H15.0165C15.2185 21.1835 15.4124 21.2644 15.5553 21.4083C15.6982 21.5522 15.7785 21.7473 15.7785 21.9508V26.9557Z" fill="white"/>
    <path d="M15.7785 26.9557C15.7785 27.1593 15.6982 27.3544 15.5553 27.4983C15.4124 27.6422 15.2185 27.7231 15.0165 27.7231H10.0319C9.82981 27.7231 9.63599 27.6422 9.49308 27.4983C9.35018 27.3544 9.2699 27.1593 9.2699 26.9557V21.9296C9.27536 21.7299 9.35805 21.5401 9.50037 21.4007C9.64269 21.2614 9.8334 21.1834 10.0319 21.1835H15.0165C15.2185 21.1835 15.4124 21.2644 15.5553 21.4083C15.6982 21.5522 15.7785 21.7473 15.7785 21.9508V26.9557Z" stroke="#C4111F" stroke-width="0.997206" stroke-miterlimit="10"/>
    <path d="M14.7716 23.8656V25.0201H13.1007V26.7658H11.9472V25.0201H10.2764V23.8656H11.9472V22.1199H13.1007V23.8656H14.7716Z" fill="#C4111F"/>
    <path d="M96.2176 1.2H97.8696L100.572 6.87C100.754 6.198 100.88 5.974 101.048 5.54L102.756 1.2H104.058L100.936 8.844C100.614 9.628 100.32 10.286 99.8576 10.678C99.4936 10.986 98.9616 11.168 98.3596 11.168C97.8836 11.168 97.4636 11.014 96.9876 10.692L97.5056 9.726C97.7716 9.908 98.0656 10.006 98.3596 10.006C98.9336 10.006 99.3116 9.642 99.6196 8.914L99.8156 8.452L96.2176 1.2ZM104.456 4.196H109.832V11H108.6V5.176H105.688V11H104.456V4.196ZM113.222 14.052H111.99V4.196H113.11V4.896C113.334 4.686 113.642 4.448 113.95 4.308C114.286 4.154 114.734 4.056 115.112 4.056C115.784 4.056 116.554 4.336 117.072 5.106C117.618 5.904 117.646 6.898 117.646 7.598C117.646 8.578 117.534 9.628 116.764 10.412C116.26 10.93 115.644 11.14 114.972 11.14C114.524 11.14 114.216 11.07 113.908 10.986C113.656 10.916 113.474 10.846 113.222 10.706V14.052ZM113.222 5.736V9.796C113.376 9.894 113.572 9.992 113.754 10.062C113.824 10.09 114.188 10.244 114.594 10.244C115.294 10.244 115.686 9.964 115.896 9.67C116.246 9.166 116.274 8.382 116.274 7.794V7.346C116.274 6.73 116.274 5.932 115.854 5.442C115.602 5.148 115.154 4.952 114.748 4.952C114.482 4.952 114.16 5.008 113.796 5.232C113.558 5.372 113.376 5.554 113.222 5.736ZM123.389 11V10.16H123.333C123.179 10.398 122.969 10.65 122.577 10.86C122.157 11.084 121.807 11.14 121.303 11.14C120.757 11.14 120.183 11.07 119.679 10.622C119.413 10.384 119.049 9.922 119.049 9.152C119.049 8.34 119.441 7.836 119.777 7.57C120.057 7.36 120.701 6.996 122.213 6.996H123.277V6.114C123.277 5.792 123.249 5.512 122.983 5.26C122.675 4.98 122.157 4.952 121.891 4.952C121.653 4.952 121.177 4.98 120.883 5.176C120.575 5.372 120.505 5.652 120.505 5.988L119.385 5.932C119.203 5.19 119.539 4.756 119.917 4.504C120.533 4.098 121.513 4.056 121.961 4.056C122.297 4.056 123.389 4.098 123.977 4.686C124.523 5.232 124.509 5.932 124.509 6.604V11H123.389ZM123.277 9.292V7.836H122.157C121.373 7.836 120.967 7.99 120.743 8.186C120.561 8.34 120.365 8.634 120.365 9.11C120.365 9.432 120.449 9.698 120.715 9.922C120.995 10.16 121.317 10.216 121.653 10.216C122.073 10.216 122.325 10.132 122.661 9.908C122.913 9.74 123.109 9.572 123.277 9.292ZM126.564 11V4.196H129.7C130.078 4.196 130.806 4.238 131.324 4.7C131.604 4.952 131.828 5.344 131.828 5.862C131.828 6.184 131.73 6.548 131.52 6.856C131.282 7.192 131.03 7.332 130.778 7.388V7.43C131.1 7.514 131.45 7.71 131.674 7.962C131.912 8.228 132.052 8.62 132.052 9.04C132.052 9.558 131.856 10.062 131.45 10.426C130.89 10.93 130.148 11 129.644 11H126.564ZM127.796 5.092V7.066H129.364C129.658 7.066 130.008 7.052 130.288 6.814C130.54 6.604 130.596 6.338 130.596 6.072C130.596 5.792 130.526 5.526 130.246 5.316C129.966 5.106 129.63 5.092 129.434 5.092H127.796ZM127.796 7.962V10.104H129.476C129.868 10.104 130.218 10.006 130.428 9.824C130.568 9.698 130.75 9.446 130.75 9.054C130.75 8.718 130.666 8.424 130.4 8.214C130.204 8.06 129.91 7.962 129.546 7.962H127.796ZM138.836 4.196V11H137.604V5.176H135.63L135.616 5.932C135.602 6.702 135.532 8.102 135.476 8.662C135.392 9.474 135.21 10.314 134.44 10.804C134.104 11.014 133.6 11.154 133.166 11.182L132.844 10.188C133.138 10.146 133.586 10.02 133.852 9.796C134.37 9.362 134.44 8.466 134.468 7.794C134.496 7.15 134.538 5.736 134.538 5.316L134.552 4.196H138.836ZM141.982 7.892V8.074C141.982 8.886 142.234 9.362 142.458 9.6C142.78 9.95 143.354 10.16 143.998 10.16C144.39 10.16 144.684 10.104 145.062 9.992C145.37 9.894 145.622 9.782 145.846 9.67L146.238 10.468C146.028 10.58 145.706 10.748 145.412 10.86C144.852 11.07 144.32 11.14 143.816 11.14C142.682 11.14 141.884 10.678 141.422 10.16C140.722 9.376 140.61 8.256 140.61 7.486C140.61 6.814 140.68 5.764 141.394 4.952C141.828 4.476 142.528 4.056 143.466 4.056C144.334 4.056 145.02 4.392 145.468 4.868C146.14 5.596 146.182 6.492 146.182 7.584V7.892H141.982ZM141.982 6.996H144.866V6.716C144.866 6.24 144.866 5.708 144.418 5.288C144.152 5.036 143.816 4.952 143.452 4.952C142.934 4.952 142.612 5.19 142.43 5.4C142.22 5.624 141.982 6.058 141.982 6.842V6.996ZM153.422 4.196V11H152.19V7.934H149.11V11H147.878V4.196H149.11V6.954H152.19V4.196H153.422ZM161.512 4.196V11H160.28V5.75L156.892 11H155.576V4.196H156.808V9.446L160.196 4.196H161.512ZM164.663 7.892V8.074C164.663 8.886 164.915 9.362 165.139 9.6C165.461 9.95 166.035 10.16 166.679 10.16C167.071 10.16 167.365 10.104 167.743 9.992C168.051 9.894 168.303 9.782 168.527 9.67L168.919 10.468C168.709 10.58 168.387 10.748 168.093 10.86C167.533 11.07 167.001 11.14 166.497 11.14C165.363 11.14 164.565 10.678 164.103 10.16C163.403 9.376 163.291 8.256 163.291 7.486C163.291 6.814 163.361 5.764 164.075 4.952C164.509 4.476 165.209 4.056 166.147 4.056C167.015 4.056 167.701 4.392 168.149 4.868C168.821 5.596 168.863 6.492 168.863 7.584V7.892H164.663ZM164.663 6.996H167.547V6.716C167.547 6.24 167.547 5.708 167.099 5.288C166.833 5.036 166.497 4.952 166.133 4.952C165.615 4.952 165.293 5.19 165.111 5.4C164.901 5.624 164.663 6.058 164.663 6.842V6.996ZM178.756 4.196V10.02H179.652V12.834H178.462V11H174.01V12.834H172.82V10.02H173.366C173.772 9.516 174.248 8.774 174.458 7.724C174.528 7.416 174.612 6.8 174.64 5.61L174.668 4.196H178.756ZM177.524 5.176H175.704L175.676 6.002C175.634 7.248 175.522 7.934 175.382 8.424C175.186 9.096 174.892 9.628 174.598 10.02H177.524V5.176ZM182.068 7.892V8.074C182.068 8.886 182.32 9.362 182.544 9.6C182.866 9.95 183.44 10.16 184.084 10.16C184.476 10.16 184.77 10.104 185.148 9.992C185.456 9.894 185.708 9.782 185.932 9.67L186.324 10.468C186.114 10.58 185.792 10.748 185.498 10.86C184.938 11.07 184.406 11.14 183.902 11.14C182.768 11.14 181.97 10.678 181.508 10.16C180.808 9.376 180.696 8.256 180.696 7.486C180.696 6.814 180.766 5.764 181.48 4.952C181.914 4.476 182.614 4.056 183.552 4.056C184.42 4.056 185.106 4.392 185.554 4.868C186.226 5.596 186.268 6.492 186.268 7.584V7.892H182.068ZM182.068 6.996H184.952V6.716C184.952 6.24 184.952 5.708 184.504 5.288C184.238 5.036 183.902 4.952 183.538 4.952C183.02 4.952 182.698 5.19 182.516 5.4C182.306 5.624 182.068 6.058 182.068 6.842V6.996ZM192.826 4.196V11H191.594V5.176H189.62L189.606 5.932C189.592 6.702 189.522 8.102 189.466 8.662C189.382 9.474 189.2 10.314 188.43 10.804C188.094 11.014 187.59 11.154 187.156 11.182L186.834 10.188C187.128 10.146 187.576 10.02 187.842 9.796C188.36 9.362 188.43 8.466 188.458 7.794C188.486 7.15 188.528 5.736 188.528 5.316L188.542 4.196H192.826ZM198.94 11V10.16H198.884C198.73 10.398 198.52 10.65 198.128 10.86C197.708 11.084 197.358 11.14 196.854 11.14C196.308 11.14 195.734 11.07 195.23 10.622C194.964 10.384 194.6 9.922 194.6 9.152C194.6 8.34 194.992 7.836 195.328 7.57C195.608 7.36 196.252 6.996 197.764 6.996H198.828V6.114C198.828 5.792 198.8 5.512 198.534 5.26C198.226 4.98 197.708 4.952 197.442 4.952C197.204 4.952 196.728 4.98 196.434 5.176C196.126 5.372 196.056 5.652 196.056 5.988L194.936 5.932C194.754 5.19 195.09 4.756 195.468 4.504C196.084 4.098 197.064 4.056 197.512 4.056C197.848 4.056 198.94 4.098 199.528 4.686C200.074 5.232 200.06 5.932 200.06 6.604V11H198.94ZM198.828 9.292V7.836H197.708C196.924 7.836 196.518 7.99 196.294 8.186C196.112 8.34 195.916 8.634 195.916 9.11C195.916 9.432 196 9.698 196.266 9.922C196.546 10.16 196.868 10.216 197.204 10.216C197.624 10.216 197.876 10.132 198.212 9.908C198.464 9.74 198.66 9.572 198.828 9.292ZM202.115 11V4.196H203.613L205.545 7.682L207.421 4.196H208.807V11H207.575V5.848L205.615 9.404H205.195L203.235 5.848V11H202.115ZM216.896 4.196V11H215.664V5.75L212.276 11H210.96V4.196H212.192V9.446L215.58 4.196H216.896ZM229.882 1.2V11H228.51V2.32H223.946V11H222.574V1.2H229.882ZM233.52 14.052H232.288V4.196H233.408V4.896C233.632 4.686 233.94 4.448 234.248 4.308C234.584 4.154 235.032 4.056 235.41 4.056C236.082 4.056 236.852 4.336 237.37 5.106C237.916 5.904 237.944 6.898 237.944 7.598C237.944 8.578 237.832 9.628 237.062 10.412C236.558 10.93 235.942 11.14 235.27 11.14C234.822 11.14 234.514 11.07 234.206 10.986C233.954 10.916 233.772 10.846 233.52 10.706V14.052ZM233.52 5.736V9.796C233.674 9.894 233.87 9.992 234.052 10.062C234.122 10.09 234.486 10.244 234.892 10.244C235.592 10.244 235.984 9.964 236.194 9.67C236.544 9.166 236.572 8.382 236.572 7.794V7.346C236.572 6.73 236.572 5.932 236.152 5.442C235.9 5.148 235.452 4.952 235.046 4.952C234.78 4.952 234.458 5.008 234.094 5.232C233.856 5.372 233.674 5.554 233.52 5.736ZM240.72 7.892V8.074C240.72 8.886 240.972 9.362 241.196 9.6C241.518 9.95 242.092 10.16 242.736 10.16C243.128 10.16 243.422 10.104 243.8 9.992C244.108 9.894 244.36 9.782 244.584 9.67L244.976 10.468C244.766 10.58 244.444 10.748 244.15 10.86C243.59 11.07 243.058 11.14 242.554 11.14C241.42 11.14 240.622 10.678 240.16 10.16C239.46 9.376 239.348 8.256 239.348 7.486C239.348 6.814 239.418 5.764 240.132 4.952C240.566 4.476 241.266 4.056 242.204 4.056C243.072 4.056 243.758 4.392 244.206 4.868C244.878 5.596 244.92 6.492 244.92 7.584V7.892H240.72ZM240.72 6.996H243.604V6.716C243.604 6.24 243.604 5.708 243.156 5.288C242.89 5.036 242.554 4.952 242.19 4.952C241.672 4.952 241.35 5.19 241.168 5.4C240.958 5.624 240.72 6.058 240.72 6.842V6.996ZM247.779 8.018V7.066H248.451C248.759 7.066 249.333 7.038 249.613 6.688C249.753 6.52 249.823 6.254 249.823 6.072C249.823 5.764 249.739 5.414 249.445 5.19C249.165 4.966 248.815 4.952 248.549 4.952C248.171 4.952 247.905 5.022 247.723 5.134C247.499 5.274 247.303 5.554 247.359 5.918L246.281 5.862C246.113 5.134 246.449 4.714 246.799 4.476C247.275 4.168 248.087 4.056 248.619 4.056C249.193 4.056 249.879 4.14 250.369 4.476C250.677 4.686 251.111 5.12 251.111 5.862C251.111 6.576 250.733 7.234 250.131 7.444V7.486C251.195 7.738 251.405 8.578 251.405 9.054C251.405 9.474 251.237 9.992 250.761 10.44C250.145 11 249.375 11.14 248.549 11.14C247.849 11.14 247.401 11.028 246.897 10.86C246.547 10.748 246.309 10.65 246.029 10.482L246.477 9.614C246.729 9.754 246.953 9.852 247.191 9.936C247.779 10.132 248.269 10.16 248.507 10.16C248.731 10.16 249.347 10.146 249.725 9.81C249.907 9.642 250.075 9.376 250.075 8.998C250.075 8.69 249.963 8.438 249.697 8.256C249.375 8.032 249.011 8.018 248.633 8.018H247.779ZM259.047 4.196V11H257.815V5.75L254.427 11H253.111V4.196H254.343V9.446L257.731 4.196H259.047ZM266.132 4.196V10.02H267.028V12.834H265.838V11H261.386V12.834H260.196V10.02H260.742C261.148 9.516 261.624 8.774 261.834 7.724C261.904 7.416 261.988 6.8 262.016 5.61L262.044 4.196H266.132ZM264.9 5.176H263.08L263.052 6.002C263.01 7.248 262.898 7.934 262.758 8.424C262.562 9.096 262.268 9.628 261.974 10.02H264.9V5.176ZM269.445 7.892V8.074C269.445 8.886 269.697 9.362 269.921 9.6C270.243 9.95 270.817 10.16 271.461 10.16C271.853 10.16 272.147 10.104 272.525 9.992C272.833 9.894 273.085 9.782 273.309 9.67L273.701 10.468C273.491 10.58 273.169 10.748 272.875 10.86C272.315 11.07 271.783 11.14 271.279 11.14C270.145 11.14 269.347 10.678 268.885 10.16C268.185 9.376 268.073 8.256 268.073 7.486C268.073 6.814 268.143 5.764 268.857 4.952C269.291 4.476 269.991 4.056 270.929 4.056C271.797 4.056 272.483 4.392 272.931 4.868C273.603 5.596 273.645 6.492 273.645 7.584V7.892H269.445ZM269.445 6.996H272.329V6.716C272.329 6.24 272.329 5.708 271.881 5.288C271.615 5.036 271.279 4.952 270.915 4.952C270.397 4.952 270.075 5.19 269.893 5.4C269.683 5.624 269.445 6.058 269.445 6.842V6.996ZM280.885 4.196V11H279.653V7.934H276.573V11H275.341V4.196H276.573V6.954H279.653V4.196H280.885ZM282.1 4.196H287.588V5.176H285.46V11H284.228V5.176H282.1V4.196ZM292.51 11V10.16H292.454C292.3 10.398 292.09 10.65 291.698 10.86C291.278 11.084 290.928 11.14 290.424 11.14C289.878 11.14 289.304 11.07 288.8 10.622C288.534 10.384 288.17 9.922 288.17 9.152C288.17 8.34 288.562 7.836 288.898 7.57C289.178 7.36 289.822 6.996 291.334 6.996H292.398V6.114C292.398 5.792 292.37 5.512 292.104 5.26C291.796 4.98 291.278 4.952 291.012 4.952C290.774 4.952 290.298 4.98 290.004 5.176C289.696 5.372 289.626 5.652 289.626 5.988L288.506 5.932C288.324 5.19 288.66 4.756 289.038 4.504C289.654 4.098 290.634 4.056 291.082 4.056C291.418 4.056 292.51 4.098 293.098 4.686C293.644 5.232 293.63 5.932 293.63 6.604V11H292.51ZM292.398 9.292V7.836H291.278C290.494 7.836 290.088 7.99 289.864 8.186C289.682 8.34 289.486 8.634 289.486 9.11C289.486 9.432 289.57 9.698 289.836 9.922C290.116 10.16 290.438 10.216 290.774 10.216C291.194 10.216 291.446 10.132 291.782 9.908C292.034 9.74 292.23 9.572 292.398 9.292ZM299.205 1.2H302.439C303.251 1.2 304.175 1.298 304.917 1.858C305.631 2.39 305.925 3.174 305.925 3.86C305.925 4.644 305.631 5.386 305.085 5.89C304.525 6.408 303.615 6.758 302.635 6.758H300.577V11H299.205V1.2ZM300.577 2.32V5.638H302.607C303.167 5.638 303.685 5.47 303.993 5.176C304.371 4.812 304.455 4.336 304.455 3.958C304.455 3.552 304.385 3.034 303.923 2.684C303.601 2.432 303.097 2.32 302.607 2.32H300.577ZM312.856 0.807999V2.082H313.052C313.36 2.082 314.564 2.11 315.558 2.824C316.146 3.244 317.014 4.168 317.014 5.89C317.014 7.64 316.132 8.564 315.558 8.984C314.564 9.698 313.36 9.726 313.052 9.726H312.856V11.168H311.484V9.726H311.288C310.98 9.726 309.776 9.698 308.782 8.984C308.208 8.564 307.326 7.64 307.326 5.89C307.326 4.168 308.194 3.244 308.782 2.824C309.776 2.11 310.98 2.082 311.288 2.082H311.484V0.807999H312.856ZM311.484 3.146H311.246C310.308 3.146 309.748 3.496 309.454 3.804C308.88 4.406 308.838 5.372 308.838 5.904C308.838 6.436 308.88 7.402 309.454 8.004C309.748 8.312 310.308 8.662 311.246 8.662H311.484V3.146ZM313.094 3.146H312.856V8.662H313.094C314.032 8.662 314.592 8.312 314.886 8.004C315.46 7.402 315.502 6.436 315.502 5.904C315.502 5.372 315.46 4.406 314.886 3.804C314.592 3.496 314.032 3.146 313.094 3.146ZM327.348 0.807999V2.082H327.544C327.852 2.082 329.056 2.11 330.05 2.824C330.638 3.244 331.506 4.168 331.506 5.89C331.506 7.64 330.624 8.564 330.05 8.984C329.056 9.698 327.852 9.726 327.544 9.726H327.348V11.168H325.976V9.726H325.78C325.472 9.726 324.268 9.698 323.274 8.984C322.7 8.564 321.818 7.64 321.818 5.89C321.818 4.168 322.686 3.244 323.274 2.824C324.268 2.11 325.472 2.082 325.78 2.082H325.976V0.807999H327.348ZM325.976 3.146H325.738C324.8 3.146 324.24 3.496 323.946 3.804C323.372 4.406 323.33 5.372 323.33 5.904C323.33 6.436 323.372 7.402 323.946 8.004C324.24 8.312 324.8 8.662 325.738 8.662H325.976V3.146ZM327.586 3.146H327.348V8.662H327.586C328.524 8.662 329.084 8.312 329.378 8.004C329.952 7.402 329.994 6.436 329.994 5.904C329.994 5.372 329.952 4.406 329.378 3.804C329.084 3.496 328.524 3.146 327.586 3.146ZM333.603 1.2H339.119V2.32H334.975V11H333.603V1.2ZM340.726 11V1.2H346.368V2.32H342.098V5.218H343.33C344.212 5.218 345.346 5.204 346.256 5.918C346.97 6.478 347.306 7.374 347.306 8.116C347.306 8.788 346.984 9.6 346.396 10.132C345.57 10.874 344.408 11 343.512 11H340.726ZM342.098 6.338V9.88H343.96C344.548 9.88 345.094 9.656 345.388 9.334C345.556 9.152 345.794 8.788 345.794 8.144C345.794 7.318 345.458 6.912 345.234 6.73C344.786 6.366 344.17 6.338 343.862 6.338H342.098ZM347.903 1.2H349.555L352.257 6.87C352.439 6.198 352.565 5.974 352.733 5.54L354.441 1.2H355.743L352.621 8.844C352.299 9.628 352.005 10.286 351.543 10.678C351.179 10.986 350.647 11.168 350.045 11.168C349.569 11.168 349.149 11.014 348.673 10.692L349.191 9.726C349.457 9.908 349.751 10.006 350.045 10.006C350.619 10.006 350.997 9.642 351.305 8.914L351.501 8.452L347.903 1.2Z" fill="black"/>
    <path d="M98.7501 23.76C96.4901 23.76 95.2101 24.78 94.5501 25.54C93.2101 27.08 93.0101 29.3 93.0101 31C93.0101 32.74 93.2101 34.94 94.5501 36.48C95.4301 37.5 96.7501 38.24 98.7501 38.24C100.75 38.24 102.07 37.5 102.95 36.48C104.29 34.94 104.49 32.74 104.49 31C104.49 29.3 104.29 27.08 102.95 25.54C102.29 24.78 101.01 23.76 98.7501 23.76ZM102.33 31.76C102.33 32.78 102.25 34.64 101.31 35.7C100.89 36.18 100.13 36.72 98.7501 36.72C97.3701 36.72 96.6101 36.18 96.1901 35.7C95.2501 34.64 95.1701 32.78 95.1701 31.76V30.24C95.1701 29.22 95.2501 27.36 96.1901 26.3C96.6101 25.82 97.3701 25.28 98.7501 25.28C100.13 25.28 100.89 25.82 101.31 26.3C102.25 27.36 102.33 29.22 102.33 30.24V31.76ZM229.726 38H233.706C234.986 38 236.646 37.82 237.826 36.76C238.666 36 239.126 34.84 239.126 33.88C239.126 32.82 238.646 31.54 237.626 30.74C236.326 29.72 234.706 29.74 233.446 29.74H231.686V25.6H237.786V24H229.726V38ZM231.686 31.34H234.206C234.646 31.34 235.526 31.38 236.166 31.9C236.486 32.16 236.966 32.74 236.966 33.92C236.966 34.84 236.626 35.36 236.386 35.62C235.966 36.08 235.186 36.4 234.346 36.4H231.686V31.34ZM345.791 24H335.351V38H337.311V25.6H343.831V38H345.791V24Z" fill="#C4111F"/>
    <path d="M113.617 23.22L113.597 23.36C113.517 23.96 113.117 24.12 112.097 24.34L111.257 24.52C110.517 24.68 109.417 24.86 108.577 25.56C107.877 26.14 107.537 26.92 107.337 27.66C106.997 28.9 106.897 30.44 106.897 32.2C106.897 33.46 106.897 35.62 108.097 36.94C108.717 37.62 109.797 38.2 111.237 38.2C112.677 38.2 113.737 37.62 114.377 36.94C115.377 35.86 115.577 34.32 115.577 33.14C115.577 31.12 114.977 29.96 114.437 29.34C113.997 28.82 113.097 28.08 111.537 28.08C110.297 28.08 108.857 28.56 108.277 30.02H108.137C108.177 28.9 108.517 27.6 109.117 27C109.697 26.42 110.637 26.26 111.197 26.14L112.597 25.84C113.657 25.62 114.177 25.32 114.397 25.18C114.837 24.9 115.197 24.5 115.217 23.22H113.617ZM113.617 33.98C113.617 34.74 113.537 35.6 112.917 36.26C112.637 36.56 112.117 36.92 111.237 36.92C110.357 36.92 109.837 36.56 109.557 36.26C108.937 35.6 108.857 34.74 108.857 33.98V32.3C108.857 31.54 108.937 30.68 109.557 30.02C109.837 29.72 110.357 29.36 111.237 29.36C112.117 29.36 112.637 29.72 112.917 30.02C113.537 30.68 113.617 31.54 113.617 32.3V33.98ZM121.016 31.86V28.28H116.676V29.68H119.216V38H123.376C124.816 38 125.696 37.58 126.196 37.12C126.736 36.64 127.156 35.86 127.156 34.94C127.156 34.06 126.796 33.26 126.156 32.72C125.216 31.94 123.916 31.86 123.076 31.86H121.016ZM121.016 33.26H123.436C124.156 33.26 124.596 33.48 124.816 33.68C125.236 34.04 125.316 34.5 125.316 34.94C125.316 35.64 125.036 35.98 124.896 36.12C124.656 36.38 124.196 36.6 123.496 36.6H121.016V33.26ZM130.708 33.56H136.708V33.12C136.708 31.56 136.648 30.28 135.688 29.24C135.048 28.56 134.068 28.08 132.828 28.08C131.488 28.08 130.488 28.68 129.868 29.36C128.848 30.52 128.748 32.02 128.748 32.98C128.748 34.08 128.908 35.68 129.908 36.8C130.568 37.54 131.708 38.2 133.328 38.2C134.048 38.2 134.808 38.1 135.608 37.8C136.028 37.64 136.488 37.4 136.788 37.24L136.228 36.1C135.908 36.26 135.548 36.42 135.108 36.56C134.568 36.72 134.148 36.8 133.588 36.8C132.668 36.8 131.848 36.5 131.388 36C131.068 35.66 130.708 34.98 130.708 33.82V33.56ZM130.708 32.28V32.06C130.708 30.94 131.048 30.32 131.348 30C131.608 29.7 132.068 29.36 132.808 29.36C133.328 29.36 133.808 29.48 134.188 29.84C134.828 30.44 134.828 31.2 134.828 31.88V32.28H130.708ZM146.171 28.28H140.331L140.291 30.3C140.251 32 140.131 32.88 140.031 33.32C139.731 34.82 139.051 35.88 138.471 36.6H137.691V40.62H139.391V38H145.751V40.62H147.451V36.6H146.171V28.28ZM144.411 29.68V36.6H140.231C140.651 36.04 141.071 35.28 141.351 34.32C141.551 33.62 141.711 32.64 141.771 30.86L141.811 29.68H144.411ZM157.963 28.28H156.083L151.243 35.78V28.28H149.483V38H151.363L156.203 30.5V38H157.963V28.28ZM168.965 28.28H167.205V32.22H162.805V28.28H161.045V38H162.805V33.62H167.205V38H168.965V28.28ZM173.461 33.56H179.461V33.12C179.461 31.56 179.401 30.28 178.441 29.24C177.801 28.56 176.821 28.08 175.581 28.08C174.241 28.08 173.241 28.68 172.621 29.36C171.601 30.52 171.501 32.02 171.501 32.98C171.501 34.08 171.661 35.68 172.661 36.8C173.321 37.54 174.461 38.2 176.081 38.2C176.801 38.2 177.561 38.1 178.361 37.8C178.781 37.64 179.241 37.4 179.541 37.24L178.981 36.1C178.661 36.26 178.301 36.42 177.861 36.56C177.321 36.72 176.901 36.8 176.341 36.8C175.421 36.8 174.601 36.5 174.141 36C173.821 35.66 173.461 34.98 173.461 33.82V33.56ZM173.461 32.28V32.06C173.461 30.94 173.801 30.32 174.101 30C174.361 29.7 174.821 29.36 175.561 29.36C176.081 29.36 176.561 29.48 176.941 29.84C177.581 30.44 177.581 31.2 177.581 31.88V32.28H173.461ZM189.805 28.28H188.045V32.22H183.645V28.28H181.885V38H183.645V33.62H188.045V38H189.805V28.28ZM200.801 28.28H199.041V32.22H194.641V28.28H192.881V38H194.641V33.62H199.041V38H200.801V28.28ZM209.537 38H211.137V31.72C211.137 30.76 211.157 29.76 210.377 28.98C209.537 28.14 207.977 28.08 207.497 28.08C206.857 28.08 205.457 28.14 204.577 28.72C204.037 29.08 203.557 29.7 203.817 30.76L205.417 30.84C205.417 30.36 205.517 29.96 205.957 29.68C206.377 29.4 207.057 29.36 207.397 29.36C207.777 29.36 208.517 29.4 208.957 29.8C209.337 30.16 209.377 30.56 209.377 31.02V32.28H207.857C205.697 32.28 204.777 32.8 204.377 33.1C203.897 33.48 203.337 34.2 203.337 35.36C203.337 36.46 203.857 37.12 204.237 37.46C204.957 38.1 205.777 38.2 206.557 38.2C207.277 38.2 207.777 38.12 208.377 37.8C208.937 37.5 209.237 37.14 209.457 36.8H209.537V38ZM209.377 35.56C209.137 35.96 208.857 36.2 208.497 36.44C208.017 36.76 207.657 36.88 207.057 36.88C206.577 36.88 206.117 36.8 205.717 36.46C205.337 36.14 205.217 35.76 205.217 35.3C205.217 34.62 205.497 34.2 205.757 33.98C206.077 33.7 206.657 33.48 207.777 33.48H209.377V35.56ZM221.613 28.28H217.073C216.413 28.28 215.573 28.46 215.053 28.78C214.333 29.22 213.913 30.04 213.913 30.88C213.913 31.52 214.173 32.14 214.533 32.54C214.853 32.9 215.413 33.26 216.113 33.36V33.42C216.013 33.46 215.693 33.58 215.413 33.82C215.053 34.14 214.913 34.46 214.793 34.72L213.233 38H215.233L216.453 35.28C216.633 34.86 216.853 34.46 217.193 34.2C217.573 33.9 217.953 33.88 218.293 33.88H219.853V38H221.613V28.28ZM219.853 29.68V32.48H217.713C216.593 32.48 215.753 32.06 215.753 31.1C215.753 30.68 215.853 30.26 216.253 29.98C216.673 29.68 217.193 29.68 217.593 29.68H219.853ZM245.666 28.08C244.226 28.08 243.166 28.66 242.526 29.34C241.526 30.42 241.326 31.96 241.326 33.14C241.326 34.32 241.526 35.86 242.526 36.94C243.166 37.62 244.226 38.2 245.666 38.2C247.106 38.2 248.166 37.62 248.806 36.94C249.806 35.86 250.006 34.32 250.006 33.14C250.006 31.96 249.806 30.42 248.806 29.34C248.166 28.66 247.106 28.08 245.666 28.08ZM248.046 33.58C248.046 34.5 248.046 35.52 247.346 36.26C247.066 36.56 246.546 36.92 245.666 36.92C244.786 36.92 244.266 36.56 243.986 36.26C243.286 35.52 243.286 34.5 243.286 33.58V32.7C243.286 31.78 243.286 30.76 243.986 30.02C244.266 29.72 244.786 29.36 245.666 29.36C246.546 29.36 247.066 29.72 247.346 30.02C248.046 30.76 248.046 31.78 248.046 32.7V33.58ZM259.104 28.28H252.984L252.964 29.88C252.964 30.48 252.904 32.5 252.864 33.42C252.824 34.38 252.724 35.66 251.984 36.28C251.604 36.6 250.964 36.78 250.544 36.84L251.004 38.26C251.624 38.22 252.344 38.02 252.824 37.72C253.924 37.02 254.184 35.82 254.304 34.66C254.384 33.86 254.484 31.86 254.504 30.76L254.524 29.68H257.344V38H259.104V28.28ZM263.978 31.86V28.28H262.178V38H266.338C267.778 38 268.658 37.58 269.158 37.12C269.698 36.64 270.118 35.86 270.118 34.94C270.118 34.06 269.758 33.26 269.118 32.72C268.178 31.94 266.878 31.86 266.038 31.86H263.978ZM263.978 33.26H266.398C267.118 33.26 267.558 33.48 267.778 33.68C268.198 34.04 268.278 34.5 268.278 34.94C268.278 35.64 267.998 35.98 267.858 36.12C267.618 36.38 267.158 36.6 266.458 36.6H263.978V33.26ZM280.176 28.28H278.416V32.22H274.016V28.28H272.256V38H274.016V33.62H278.416V38H280.176V28.28ZM291.732 28.28H289.852L285.012 35.78V28.28H283.252V38H285.132L289.972 30.5V38H291.732V28.28ZM300.695 28.28V36.6H296.575V28.28H294.815V38H302.035V40.62H303.735V36.6H302.455V28.28H300.695ZM311.432 38H313.032V31.72C313.032 30.76 313.052 29.76 312.272 28.98C311.432 28.14 309.872 28.08 309.392 28.08C308.752 28.08 307.352 28.14 306.472 28.72C305.932 29.08 305.452 29.7 305.712 30.76L307.312 30.84C307.312 30.36 307.412 29.96 307.852 29.68C308.272 29.4 308.952 29.36 309.292 29.36C309.672 29.36 310.412 29.4 310.852 29.8C311.232 30.16 311.272 30.56 311.272 31.02V32.28H309.752C307.592 32.28 306.672 32.8 306.272 33.1C305.792 33.48 305.232 34.2 305.232 35.36C305.232 36.46 305.752 37.12 306.132 37.46C306.852 38.1 307.672 38.2 308.452 38.2C309.172 38.2 309.672 38.12 310.272 37.8C310.832 37.5 311.132 37.14 311.352 36.8H311.432V38ZM311.272 35.56C311.032 35.96 310.752 36.2 310.392 36.44C309.912 36.76 309.552 36.88 308.952 36.88C308.472 36.88 308.012 36.8 307.612 36.46C307.232 36.14 307.112 35.76 307.112 35.3C307.112 34.62 307.392 34.2 307.652 33.98C307.972 33.7 308.552 33.48 309.672 33.48H311.272V35.56ZM327.415 36.1C327.095 36.26 326.735 36.42 326.295 36.56C325.755 36.72 325.315 36.8 324.775 36.8C324.435 36.8 323.455 36.74 322.815 36.14C322.095 35.46 322.055 34.54 322.055 33.72V32.42C322.055 31.68 321.995 30.44 322.995 29.74C323.355 29.5 323.835 29.36 324.395 29.36C325.055 29.36 325.555 29.54 325.855 29.84C326.255 30.24 326.255 30.82 326.195 31.38L327.815 31.24C328.115 30.2 327.735 29.14 326.735 28.6C326.115 28.26 325.215 28.08 324.555 28.08C323.595 28.08 322.495 28.34 321.755 28.9C320.315 29.98 320.095 31.88 320.095 33.2C320.095 34.04 320.215 36 321.635 37.24C322.555 38.04 323.675 38.2 324.515 38.2C325.415 38.2 326.115 38.06 326.795 37.8C327.215 37.64 327.675 37.4 327.975 37.24L327.415 36.1ZM353.029 28.08C351.589 28.08 350.529 28.66 349.889 29.34C348.889 30.42 348.689 31.96 348.689 33.14C348.689 34.32 348.889 35.86 349.889 36.94C350.529 37.62 351.589 38.2 353.029 38.2C354.469 38.2 355.529 37.62 356.169 36.94C357.169 35.86 357.369 34.32 357.369 33.14C357.369 31.96 357.169 30.42 356.169 29.34C355.529 28.66 354.469 28.08 353.029 28.08ZM355.409 33.58C355.409 34.5 355.409 35.52 354.709 36.26C354.429 36.56 353.909 36.92 353.029 36.92C352.149 36.92 351.629 36.56 351.349 36.26C350.649 35.52 350.649 34.5 350.649 33.58V32.7C350.649 31.78 350.649 30.76 351.349 30.02C351.629 29.72 352.149 29.36 353.029 29.36C353.909 29.36 354.429 29.72 354.709 30.02C355.409 30.76 355.409 31.78 355.409 32.7V33.58ZM366.467 28.28H360.347L360.327 29.88C360.327 30.48 360.267 32.5 360.227 33.42C360.187 34.38 360.087 35.66 359.347 36.28C358.967 36.6 358.327 36.78 357.907 36.84L358.367 38.26C358.987 38.22 359.707 38.02 360.187 37.72C361.287 37.02 361.547 35.82 361.667 34.66C361.747 33.86 361.847 31.86 361.867 30.76L361.887 29.68H364.707V38H366.467V28.28ZM378.021 28.28H376.141L371.301 35.78V28.28H369.541V38H371.421L376.261 30.5V38H378.021V28.28ZM382.864 28.28H381.104V38H382.864V33.54H384.284C384.624 33.54 384.984 33.58 385.324 33.84C385.704 34.12 385.844 34.52 386.024 34.94L387.404 38H389.364L387.764 34.42C387.744 34.38 387.484 33.78 387.064 33.38C386.724 33.06 386.384 32.9 385.984 32.84V32.78C386.364 32.68 386.664 32.48 386.864 32.28C387.224 31.92 387.324 31.56 387.464 31.18L387.784 30.24C387.924 29.86 388.044 29.7 388.124 29.62C388.244 29.5 388.384 29.48 388.524 29.48C388.664 29.48 388.844 29.5 389.044 29.62L389.304 28.3C388.924 28.14 388.524 28.08 388.184 28.08C387.904 28.08 387.704 28.12 387.444 28.22C387.004 28.4 386.644 28.68 386.284 29.76L385.904 30.88C385.804 31.16 385.644 31.56 385.384 31.8C385.044 32.12 384.564 32.14 384.224 32.14H382.864V28.28ZM398.557 28.28H392.437L392.417 29.88C392.417 30.48 392.357 32.5 392.317 33.42C392.277 34.38 392.177 35.66 391.437 36.28C391.057 36.6 390.417 36.78 389.997 36.84L390.457 38.26C391.077 38.22 391.797 38.02 392.277 37.72C393.377 37.02 393.637 35.82 393.757 34.66C393.837 33.86 393.937 31.86 393.957 30.76L393.977 29.68H396.797V38H398.557V28.28ZM410.111 28.28H408.231L403.391 35.78V28.28H401.631V38H403.511L408.351 30.5V38H410.111V28.28ZM421.114 28.28H419.354V32.22H414.954V28.28H413.194V38H414.954V33.62H419.354V38H421.114V28.28ZM432.67 28.28H430.79L425.95 35.78V28.28H424.19V38H426.07L430.91 30.5V38H432.67V28.28ZM437.512 28.28H435.752V38H437.512V33.54H438.932C439.272 33.54 439.632 33.58 439.972 33.84C440.352 34.12 440.492 34.52 440.672 34.94L442.052 38H444.012L442.412 34.42C442.392 34.38 442.132 33.78 441.712 33.38C441.372 33.06 441.032 32.9 440.632 32.84V32.78C441.012 32.68 441.312 32.48 441.512 32.28C441.872 31.92 441.972 31.56 442.112 31.18L442.432 30.24C442.572 29.86 442.692 29.7 442.772 29.62C442.892 29.5 443.032 29.48 443.172 29.48C443.312 29.48 443.492 29.5 443.692 29.62L443.952 28.3C443.572 28.14 443.172 28.08 442.832 28.08C442.552 28.08 442.352 28.12 442.092 28.22C441.652 28.4 441.292 28.68 440.932 29.76L440.552 30.88C440.452 31.16 440.292 31.56 440.032 31.8C439.692 32.12 439.212 32.14 438.872 32.14H437.512V28.28ZM449.845 28.08C448.405 28.08 447.345 28.66 446.705 29.34C445.705 30.42 445.505 31.96 445.505 33.14C445.505 34.32 445.705 35.86 446.705 36.94C447.345 37.62 448.405 38.2 449.845 38.2C451.285 38.2 452.345 37.62 452.985 36.94C453.985 35.86 454.185 34.32 454.185 33.14C454.185 31.96 453.985 30.42 452.985 29.34C452.345 28.66 451.285 28.08 449.845 28.08ZM452.225 33.58C452.225 34.5 452.225 35.52 451.525 36.26C451.245 36.56 450.725 36.92 449.845 36.92C448.965 36.92 448.445 36.56 448.165 36.26C447.465 35.52 447.465 34.5 447.465 33.58V32.7C447.465 31.78 447.465 30.76 448.165 30.02C448.445 29.72 448.965 29.36 449.845 29.36C450.725 29.36 451.245 29.72 451.525 30.02C452.225 30.76 452.225 31.78 452.225 32.7V33.58ZM465.209 28.28H463.329L458.489 35.78V28.28H456.729V38H458.609L463.449 30.5V38H465.209V28.28ZM458.349 24.16C458.269 24.4 458.249 24.6 458.249 24.84C458.249 25.4 458.409 25.98 459.109 26.38C459.629 26.68 460.409 26.78 460.969 26.78C461.529 26.78 462.309 26.68 462.829 26.38C463.529 25.98 463.689 25.4 463.689 24.84C463.689 24.6 463.669 24.4 463.589 24.16L462.189 24.28C462.309 24.72 462.169 25.12 461.889 25.34C461.649 25.52 461.269 25.58 460.969 25.58C460.669 25.58 460.289 25.52 460.049 25.34C459.769 25.12 459.629 24.72 459.749 24.28L458.349 24.16Z" fill="#0D49B4"/>
</svg>
